PathFileType	4	(X/Y/Z)	Kaydara																																																																																																																																																																																																																												
DataRate	CameraRate	NumFrames	NumMarkers	Units	OrigDataRate	OrigDataStartFrame	OrigNumFrames																																																																																																																																																																																																																								
60	60	4	74	mm	60	1368	294																																																																																																																																																																																																																								
Frame#	Time	N_lasi			N_rasi			N_rpsi			N_lpsi			N_fneck			N_bneck			N_fhead			N_rhead			N_lhead			N_rshld			N_relbtop			N_relbext			N_relblow			N_rwrext			N_rwrtop			N_rwrlow			N_lshld			N_lelblow			N_lelbtop			N_lwrext			N_lwrtop			N_lwrlow			N_rtopleg			N_ltopleg			N_rkneefr			N_rkneebk			N_rkneeis			N_lkneefr			N_lknssbk			N_lkneeis			N_rankfr			N_rankis			N_rankbk			N_lankfr			N_lankbk			N_lankis			D_lasi			D_rasi			D_lpsi			D_fneck			D_bneck			D_fhead			D_rhead			D_lhead			D_rshld			D_relbtop			D_relbext			D_relblow			D_rwrext			D_rwrtop			D_rwrlow			D_lshld			D_lelbext			D_lelblow			D_lelbtop			D_lwrext			D_lwrtop			D_lwrlow			D_rtopleg			D_ltopleg			D_rkneefr			D_rkneebk			D_rkneeis			D_lkneefr			D_lknssbk			D_lkneeis			D_rankfr			D_rankis			D_rankbk			D_lankfr			D_lankbk			D_lankis			D_rpsi			N_lelbext		
		X1	Y1	Z1	X2	Y2	Z2	X3	Y3	Z3	X4	Y4	Z4	X5	Y5	Z5	X6	Y6	Z6	X7	Y7	Z7	X8	Y8	Z8	X9	Y9	Z9	X10	Y10	Z10	X11	Y11	Z11	X12	Y12	Z12	X13	Y13	Z13	X14	Y14	Z14	X15	Y15	Z15	X16	Y16	Z16	X17	Y17	Z17	X18	Y18	Z18	X19	Y19	Z19	X20	Y20	Z20	X21	Y21	Z21	X22	Y22	Z22	X23	Y23	Z23	X24	Y24	Z24	X25	Y25	Z25	X26	Y26	Z26	X27	Y27	Z27	X28	Y28	Z28	X29	Y29	Z29	X30	Y30	Z30	X31	Y31	Z31	X32	Y32	Z32	X33	Y33	Z33	X34	Y34	Z34	X35	Y35	Z35	X36	Y36	Z36	X37	Y37	Z37	X38	Y38	Z38	X39	Y39	Z39	X40	Y40	Z40	X41	Y41	Z41	X42	Y42	Z42	X43	Y43	Z43	X44	Y44	Z44	X45	Y45	Z45	X46	Y46	Z46	X47	Y47	Z47	X48	Y48	Z48	X49	Y49	Z49	X50	Y50	Z50	X51	Y51	Z51	X52	Y52	Z52	X53	Y53	Z53	X54	Y54	Z54	X55	Y55	Z55	X56	Y56	Z56	X57	Y57	Z57	X58	Y58	Z58	X59	Y59	Z59	X60	Y60	Z60	X61	Y61	Z61	X62	Y62	Z62	X63	Y63	Z63	X64	Y64	Z64	X65	Y65	Z65	X66	Y66	Z66	X67	Y67	Z67	X68	Y68	Z68	X69	Y69	Z69	X70	Y70	Z70	X71	Y71	Z71	X72	Y72	Z72	X73	Y73	Z73	X74	Y74	Z74
																																																																																																																																																																																																																															
111	22.783	-536.12762	1241.60629	-79.38678	-519.66919	1242.957	-311.66828	-236.71265	1216.84166	-358.30715	-272.24058	1224.44084	-5.05934	-392.44762	1608.32916	-194.6492	-253.76032	1664.34189	-207.47789	-437.81792	1814.12872	-198.59196	-254.07133	1764.57291	-268.07848	-293.29489	1775.43335	-116.45658	-303.6389	1536.1496	-456.13602	-235.36732	1228.39188	-462.29042	-323.74424	1145.94925	-454.15447	-326.11633	1223.3107	-459.1975	-230.73729	907.23724	-460.27649	-273.323	894.2466	-478.73394	-308.29708	906.60118	-448.2502	-265.21494	1627.28821	-16.57407	-293.82584	1635.39169	257.24937	-259.65218	1555.70251	269.31456	-269.67514	1619.47159	580.57777	-308.22491	1645.10361	589.31187	-338.73024	1600.97763	585.24242	-420.39036	1038.7899	-434.82693	-372.90489	1019.26765	47.0458	-431.35971	561.63727	-257.16627	-325.91042	578.90694	-326.15318	-368.71845	564.65347	-164.56045	-380.51769	539.60381	-98.7376	-253.88199	556.38443	-40.3527	-256.77462	547.69241	-190.07187	-297.31327	139.75553	-270.28759	-298.94207	154.36478	-190.29118	-217.02608	142.01653	-215.79611	-332.28455	193.31478	-117.58551	-258.82858	186.02009	-75.31735	-294.82858	165.02009	-159.31735	-459.91455	1038.50853	1741.14349	-422.6429	1056.83929	1455.32578	-262.78709	1132.18559	1745.21194	-408.26553	1565.78598	1582.66861	-267.45403	1591.74164	1590.11398	-440.07286	1777.8273	1584.31641	-278.92262	1729.96552	1508.11691	-288.22958	1728.18909	1663.37494	-320.0872	1563.51456	1427.66068	-392.1302	1471.15448	1140.47035	-436.28227	1499.97696	1193.30147	-342.03442	1526.79321	1185.39078	-471.36238	1748.68317	1174.42215	-414.13326	1759.81995	1169.91112	-409.37515	1740.28549	1220.16708	-319.02807	1569.94202	1778.86307	-415.0491	1497.13684	2038.75305	-327.15336	1558.69324	2027.18979	-336.07182	1481.28372	2045.92773	-362.19479	1561.03973	2289.70779	-393.05012	1590.13031	2279.05838	-433.51151	1561.04507	2269.35822	-329.23382	1004.85603	1408.55179	-319.65557	1009.85878	1809.38538	-372.42699	455.70873	1450.51193	-272.38623	491.06228	1422.8183	-280.09295	458.51357	1543.77518	-358.27572	448.37185	1770.85602	-245.7176	485.6905	1787.18521	-316.9043	443.82187	1679.61334	-323.49918	130.49337	1418.03879	-294.63648	126.57364	1482.42859	-243.2155	127.70299	1418.12668	-323.36998	134.77914	1791.95099	-250.51498	124.74103	1806.48911	-293.60298	123.93891	1732.78381	-233.94358	1146.46095	1528.29849	-350.76366	1549.29901	269.59291
112	22.8	-535.90034	1241.12862	-79.64619	-519.68037	1243.20503	-311.76302	-236.20359	1217.12814	-358.57143	-272.63975	1224.23943	-5.03515	-393.03013	1608.53577	-194.99958	-254.34284	1664.54849	-207.82829	-437.59041	1814.33029	-198.5272	-254.09109	1764.29138	-268.18037	-293.15357	1774.96979	-116.51849	-303.79005	1535.57648	-456.51993	-234.60396	1227.69142	-460.6601	-322.90905	1145.17387	-452.84294	-325.52544	1222.56737	-458.30799	-231.11565	906.24794	-451.97594	-273.23658	892.87613	-471.31504	-309.12605	905.94971	-442.46006	-265.70337	1627.18399	-16.87095	-293.87987	1635.05737	257.05751	-259.83526	1555.51453	269.06324	-269.19842	1618.8063	580.36564	-307.77925	1644.27307	589.2115	-338.26271	1600.11658	585.10986	-420.01942	1039.24522	-435.04436	-372.56008	1018.88321	46.63272	-431.437	561.59286	-257.58224	-326.17901	578.81847	-326.74816	-368.56968	564.63985	-165.03622	-380.39688	539.58347	-99.21385	-253.94262	556.39893	-40.84114	-256.76804	547.57069	-190.5303	-297.35489	139.68854	-270.32543	-298.88647	154.31162	-190.4546	-217.00642	141.98756	-216.01841	-332.22309	193.32661	-117.78285	-258.76068	186.063	-75.52909	-294.76068	165.063	-159.52909	-460.10284	1038.46115	1741.09406	-422.5845	1056.88484	1455.39108	-263.17259	1132.20604	1745.41245	-408.67191	1565.73975	1582.53098	-267.9307	1591.68427	1590.0174	-440.7711	1777.81433	1583.98376	-279.45845	1729.86908	1507.84302	-288.77056	1728.14789	1663.00705	-320.40943	1563.4642	1427.36633	-391.71097	1470.68436	1140.33669	-436.19473	1499.17938	1192.8627	-341.93623	1526.62308	1185.19264	-472.49348	1747.64664	1173.76434	-415.26257	1759.11636	1169.73228	-410.80563	1739.53339	1219.96819	-319.07505	1570.41794	1778.61664	-415.31078	1498.48969	2038.28186	-326.54766	1558.81622	2026.57257	-336.47285	1481.6507	2045.74936	-361.91639	1560.85709	2289.54697	-391.82526	1591.0437	2278.80386	-433.10848	1563.61938	2268.99033	-329.15096	1004.8642	1408.64975	-319.84541	1009.77837	1809.44077	-372.43248	455.7021	1450.57053	-272.43851	491.09173	1422.939	-280.09401	458.42464	1543.85269	-358.32394	448.35815	1770.84961	-245.80626	485.71796	1787.32239	-316.85431	443.82957	1679.65057	-323.49903	130.51877	1418.01697	-294.63936	126.57378	1482.4794	-243.22741	127.72184	1418.13858	-323.36208	134.77592	1792.00317	-250.52435	124.7477	1806.55106	-293.5865	123.93451	1732.78824	-233.97707	1146.41861	1528.57239	-350.43781	1548.84369	269.22924
113	22.817	-535.73784	1240.62057	-79.76153	-519.58118	1243.38486	-311.87963	-235.60312	1216.98219	-358.47782	-273.04647	1224.02664	-5.11108	-392.93385	1607.83997	-196.5675	-254.24656	1663.85269	-209.39619	-437.38899	1814.5874	-198.54784	-254.26815	1763.97919	-268.57014	-292.44785	1774.69269	-117.06308	-303.706	1535.07477	-456.71894	-233.56861	1227.06833	-459.41017	-321.74995	1144.47739	-451.95477	-324.55883	1221.90468	-457.88475	-231.13777	905.23834	-446.3979	-272.76318	891.80588	-466.68491	-310.0495	905.61897	-440.20905	-265.98215	1627.06741	-16.95759	-294.17429	1634.73053	256.93287	-259.70547	1555.44708	268.95824	-268.88477	1618.2962	580.16579	-307.43876	1643.65631	589.17542	-337.74055	1599.33395	585.01167	-420.01869	1039.46289	-435.24059	-372.19284	1018.51929	46.20352	-431.46793	561.57063	-257.88616	-326.29234	578.83385	-327.27787	-368.57094	564.67354	-165.2977	-380.35458	539.53911	-99.57924	-253.83886	556.40892	-41.19464	-256.66965	547.5013	-190.95013	-297.37534	139.63394	-270.35013	-298.85553	154.26317	-190.53705	-217.00281	141.94255	-216.21672	-332.169	193.29182	-117.98777	-258.70935	186.07845	-75.72282	-294.70935	165.07845	-159.72282	-460.46429	1038.64113	1741.16333	-422.57668	1056.87538	1455.45074	-263.45097	1132.21451	1745.62866	-409.11827	1565.61188	1582.29935	-268.33994	1591.69968	1589.85214	-441.38161	1777.70157	1583.71765	-279.86073	1729.8407	1507.57278	-289.33569	1728.18954	1662.85355	-320.72517	1563.52646	1427.1701	-391.29021	1470.67535	1139.93774	-436.04809	1498.87405	1192.61681	-341.92104	1526.73538	1185.07034	-473.63304	1747.05307	1173.38486	-416.50185	1758.72894	1169.77783	-412.46086	1739.25232	1220.05386	-318.89795	1570.65659	1778.19031	-415.4641	1500.35248	2037.742	-325.78091	1559.21173	2026.07666	-337.07481	1482.26852	2045.03296	-361.80595	1561.20499	2289.21173	-390.26043	1592.64908	2278.49976	-432.69096	1567.24808	2268.26508	-329.11945	1004.87526	1408.76785	-320.10826	1009.73251	1809.58908	-372.42775	455.70381	1450.61584	-272.42859	491.10897	1423.08533	-280.1416	458.48549	1543.94989	-358.35869	448.33916	1770.87875	-245.90202	485.74425	1787.44461	-316.85867	443.85841	1679.74289	-323.49052	130.51913	1418.02917	-294.63955	126.57356	1482.47711	-243.25602	127.73966	1418.1839	-323.39069	134.77585	1791.97128	-250.59708	124.62446	1806.57578	-293.59018	123.92734	1732.82745	-234.06824	1146.36246	1528.90289	-350.18616	1548.44604	269.13794
114	22.833	-535.58372	1240.1506	-79.85216	-519.46587	1243.38448	-312.0606	-235.60879	1216.75697	-358.44044	-272.97245	1223.7606	-5.53683	-393.18237	1607.64069	-196.63288	-254.49507	1663.65341	-209.46157	-437.2945	1814.79782	-198.60918	-254.34868	1763.69766	-268.6404	-292.44864	1774.50638	-117.23911	-303.46518	1534.66248	-456.85822	-232.41976	1226.65657	-458.49552	-320.4911	1143.93852	-451.67347	-323.50609	1221.34583	-458.33996	-230.61863	904.50424	-445.28179	-271.90142	891.28296	-466.46843	-309.71523	905.38071	-440.56511	-266.4415	1626.93848	-17.11355	-294.37643	1634.51035	256.88248	-259.44811	1555.28687	268.79776	-268.59079	1617.90802	579.97494	-307.11697	1643.1546	589.0694	-337.30282	1598.76022	584.96925	-420.20184	1039.47655	-435.62626	-371.74892	1018.10905	45.80921	-431.63364	561.605	-258.05666	-326.49097	578.97461	-327.57858	-368.58013	564.64794	-165.50741	-380.41382	539.54723	-99.82316	-253.82538	556.41464	-41.40499	-256.67368	547.51827	-191.17672	-297.48085	139.69896	-270.52471	-298.84254	154.27025	-190.62822	-217.02055	141.9462	-216.33665	-332.12067	193.27381	-118.11744	-258.70472	186.06117	-75.93562	-294.70472	165.06117	-159.93562	-460.66158	1038.66814	1741.22879	-422.60159	1056.82541	1455.52261	-263.73924	1132.27203	1745.79315	-409.31179	1565.51895	1582.01447	-268.31842	1591.88049	1590.01312	-441.96476	1777.54257	1583.41934	-280.53864	1729.95819	1507.18048	-289.92849	1728.43872	1662.67929	-320.96493	1563.65158	1427.09076	-391.15471	1470.9935	1139.729	-436.03897	1498.89359	1192.42035	-342.1249	1527.28378	1184.90929	-474.93534	1746.99966	1173.15964	-417.81891	1758.69995	1169.80873	-413.99929	1739.14841	1220.38025	-318.83772	1570.87875	1777.81799	-415.7201	1502.54547	2037.17773	-325.13538	1559.97452	2025.68481	-337.62188	1483.37372	2044.8494	-361.92039	1562.32697	2288.98361	-388.89202	1595.06561	2277.89551	-432.55138	1571.72775	2267.1524	-329.12518	1004.87396	1408.88351	-320.2821	1009.72672	1809.72565	-372.42077	455.68775	1450.64743	-272.41117	491.11423	1423.22556	-280.17681	458.44254	1543.98926	-358.41476	448.31997	1770.87265	-246.00285	485.72861	1787.60849	-316.85036	443.8839	1679.79736	-323.49804	130.53994	1418.02689	-294.70545	126.57763	1482.47696	-243.26206	127.72597	1418.23761	-323.41957	134.77013	1791.99677	-250.62113	124.74636	1806.61148	-293.56976	123.9216	1732.84424	-234.16355	1146.34125	1529.23843	-350.03128	1548.01605	269.09571
